<mxfile host="app.diagrams.net" modified="2021-02-03T08:10:44.534Z" agent="5.0 (X11; Linux x86_64) AppleWebKit/537.36 (KHTML, like Gecko) Chrome/87.0.4280.66 Safari/537.36" etag="7o7suL0SQKCotAkQpdRp" version="14.1.4" type="github">
  <diagram id="CunCGzvaNNiCj6hEN54D" name="Page-1">
    <mxGraphModel dx="774" dy="1148" grid="0" gridSize="10" guides="1" tooltips="1" connect="1" arrows="1" fold="1" page="1" pageScale="1" pageWidth="827" pageHeight="1169" background="none" math="0" shadow="0">
      <root>
        <mxCell id="0" />
        <mxCell id="1" parent="0" />
        <mxCell id="E-WgCWVg2FSw_FKLfw6c-4" value="否" style="edgeStyle=orthogonalEdgeStyle;rounded=0;orthogonalLoop=1;jettySize=auto;html=1;entryX=0;entryY=0.5;entryDx=0;entryDy=0;noEdgeStyle=1;orthogonal=1;" parent="1" source="E-WgCWVg2FSw_FKLfw6c-1" target="E-WgCWVg2FSw_FKLfw6c-2" edge="1">
          <mxGeometry relative="1" as="geometry">
            <Array as="points">
              <mxPoint x="132" y="578.0000000000003" />
              <mxPoint x="208" y="486.2000000000004" />
            </Array>
          </mxGeometry>
        </mxCell>
        <mxCell id="E-WgCWVg2FSw_FKLfw6c-5" value="是" style="edgeStyle=orthogonalEdgeStyle;rounded=0;orthogonalLoop=1;jettySize=auto;html=1;entryX=0;entryY=0.5;entryDx=0;entryDy=0;noEdgeStyle=1;orthogonal=1;" parent="1" source="E-WgCWVg2FSw_FKLfw6c-1" target="E-WgCWVg2FSw_FKLfw6c-3" edge="1">
          <mxGeometry relative="1" as="geometry">
            <Array as="points">
              <mxPoint x="132" y="612.0000000000003" />
              <mxPoint x="208" y="703.8000000000004" />
            </Array>
          </mxGeometry>
        </mxCell>
        <mxCell id="E-WgCWVg2FSw_FKLfw6c-1" value="&lt;p&gt;has_change_lane&lt;/p&gt;&lt;p&gt;（是否有多条参考线）&lt;/p&gt;" style="rounded=0;whiteSpace=wrap;html=1;" parent="1" vertex="1">
          <mxGeometry y="556.0000000000003" width="120" height="78" as="geometry" />
        </mxCell>
        <mxCell id="E-WgCWVg2FSw_FKLfw6c-10" style="edgeStyle=orthogonalEdgeStyle;rounded=0;orthogonalLoop=1;jettySize=auto;html=1;entryX=0;entryY=0.5;entryDx=0;entryDy=0;noEdgeStyle=1;orthogonal=1;" parent="1" source="E-WgCWVg2FSw_FKLfw6c-2" target="E-WgCWVg2FSw_FKLfw6c-6" edge="1">
          <mxGeometry relative="1" as="geometry">
            <Array as="points">
              <mxPoint x="352" y="465.9500000000004" />
              <mxPoint x="428" y="357.00000000000034" />
            </Array>
          </mxGeometry>
        </mxCell>
        <mxCell id="E-WgCWVg2FSw_FKLfw6c-13" style="edgeStyle=orthogonalEdgeStyle;rounded=0;orthogonalLoop=1;jettySize=auto;html=1;entryX=0;entryY=0.5;entryDx=0;entryDy=0;noEdgeStyle=1;orthogonal=1;" parent="1" source="E-WgCWVg2FSw_FKLfw6c-2" target="E-WgCWVg2FSw_FKLfw6c-7" edge="1">
          <mxGeometry relative="1" as="geometry">
            <Array as="points">
              <mxPoint x="354" y="479.4500000000004" />
              <mxPoint x="428" y="425.00000000000034" />
            </Array>
          </mxGeometry>
        </mxCell>
        <mxCell id="E-WgCWVg2FSw_FKLfw6c-14" style="edgeStyle=orthogonalEdgeStyle;rounded=0;orthogonalLoop=1;jettySize=auto;html=1;entryX=0;entryY=0.5;entryDx=0;entryDy=0;noEdgeStyle=1;orthogonal=1;" parent="1" source="E-WgCWVg2FSw_FKLfw6c-2" target="E-WgCWVg2FSw_FKLfw6c-8" edge="1">
          <mxGeometry relative="1" as="geometry">
            <Array as="points">
              <mxPoint x="354" y="492.9500000000004" />
              <mxPoint x="428" y="493.00000000000034" />
            </Array>
          </mxGeometry>
        </mxCell>
        <mxCell id="E-WgCWVg2FSw_FKLfw6c-15" style="edgeStyle=orthogonalEdgeStyle;rounded=0;orthogonalLoop=1;jettySize=auto;html=1;entryX=0;entryY=0.5;entryDx=0;entryDy=0;noEdgeStyle=1;orthogonal=1;" parent="1" source="E-WgCWVg2FSw_FKLfw6c-2" target="E-WgCWVg2FSw_FKLfw6c-9" edge="1">
          <mxGeometry relative="1" as="geometry">
            <Array as="points">
              <mxPoint x="352" y="506.4500000000004" />
              <mxPoint x="428" y="561.0000000000003" />
            </Array>
          </mxGeometry>
        </mxCell>
        <mxCell id="E-WgCWVg2FSw_FKLfw6c-2" value="&lt;p&gt;prev_status&lt;/p&gt;&lt;p&gt;上一帧状态&lt;/p&gt;" style="rounded=0;whiteSpace=wrap;html=1;" parent="1" vertex="1">
          <mxGeometry x="220" y="454.2000000000004" width="120" height="64" as="geometry" />
        </mxCell>
        <mxCell id="E-WgCWVg2FSw_FKLfw6c-35" style="edgeStyle=orthogonalEdgeStyle;rounded=0;orthogonalLoop=1;jettySize=auto;html=1;entryX=0;entryY=0.5;entryDx=0;entryDy=0;noEdgeStyle=1;orthogonal=1;" parent="1" source="E-WgCWVg2FSw_FKLfw6c-3" target="E-WgCWVg2FSw_FKLfw6c-24" edge="1">
          <mxGeometry relative="1" as="geometry">
            <Array as="points">
              <mxPoint x="352" y="683.5500000000004" />
              <mxPoint x="428" y="629.0000000000003" />
            </Array>
          </mxGeometry>
        </mxCell>
        <mxCell id="E-WgCWVg2FSw_FKLfw6c-36" style="edgeStyle=orthogonalEdgeStyle;rounded=0;orthogonalLoop=1;jettySize=auto;html=1;entryX=0;entryY=0.5;entryDx=0;entryDy=0;noEdgeStyle=1;orthogonal=1;" parent="1" source="E-WgCWVg2FSw_FKLfw6c-3" target="E-WgCWVg2FSw_FKLfw6c-26" edge="1">
          <mxGeometry relative="1" as="geometry">
            <Array as="points">
              <mxPoint x="354" y="697.0500000000004" />
              <mxPoint x="428" y="697.0000000000003" />
            </Array>
          </mxGeometry>
        </mxCell>
        <mxCell id="E-WgCWVg2FSw_FKLfw6c-38" style="edgeStyle=orthogonalEdgeStyle;rounded=0;orthogonalLoop=1;jettySize=auto;html=1;entryX=0;entryY=0.5;entryDx=0;entryDy=0;noEdgeStyle=1;orthogonal=1;" parent="1" source="E-WgCWVg2FSw_FKLfw6c-3" target="E-WgCWVg2FSw_FKLfw6c-28" edge="1">
          <mxGeometry relative="1" as="geometry">
            <Array as="points">
              <mxPoint x="354" y="710.5500000000004" />
              <mxPoint x="428" y="765.0000000000003" />
            </Array>
          </mxGeometry>
        </mxCell>
        <mxCell id="E-WgCWVg2FSw_FKLfw6c-39" style="edgeStyle=orthogonalEdgeStyle;rounded=0;orthogonalLoop=1;jettySize=auto;html=1;entryX=0;entryY=0.5;entryDx=0;entryDy=0;noEdgeStyle=1;orthogonal=1;" parent="1" source="E-WgCWVg2FSw_FKLfw6c-3" target="E-WgCWVg2FSw_FKLfw6c-30" edge="1">
          <mxGeometry relative="1" as="geometry">
            <Array as="points">
              <mxPoint x="352" y="724.0500000000004" />
              <mxPoint x="428" y="833.0000000000003" />
            </Array>
          </mxGeometry>
        </mxCell>
        <mxCell id="E-WgCWVg2FSw_FKLfw6c-3" value="&lt;p&gt;prev_status&lt;br&gt;&lt;/p&gt;&lt;p&gt;上一帧状态&lt;/p&gt;" style="rounded=0;whiteSpace=wrap;html=1;" parent="1" vertex="1">
          <mxGeometry x="220" y="671.8000000000004" width="120" height="64" as="geometry" />
        </mxCell>
        <mxCell id="E-WgCWVg2FSw_FKLfw6c-16" style="edgeStyle=orthogonalEdgeStyle;rounded=0;orthogonalLoop=1;jettySize=auto;html=1;entryX=0;entryY=0.5;entryDx=0;entryDy=0;noEdgeStyle=1;orthogonal=1;" parent="1" source="E-WgCWVg2FSw_FKLfw6c-6" target="E-WgCWVg2FSw_FKLfw6c-11" edge="1">
          <mxGeometry relative="1" as="geometry">
            <Array as="points">
              <mxPoint x="572" y="357.00000000000034" />
              <mxPoint x="648" y="318.0000000000002" />
            </Array>
          </mxGeometry>
        </mxCell>
        <mxCell id="E-WgCWVg2FSw_FKLfw6c-6" value="&lt;p&gt;FINISHED&lt;/p&gt;" style="rounded=0;whiteSpace=wrap;html=1;" parent="1" vertex="1">
          <mxGeometry x="440" y="338.00000000000034" width="120" height="38" as="geometry" />
        </mxCell>
        <mxCell id="E-WgCWVg2FSw_FKLfw6c-17" style="edgeStyle=orthogonalEdgeStyle;rounded=0;orthogonalLoop=1;jettySize=auto;html=1;entryX=0;entryY=0.5;entryDx=0;entryDy=0;noEdgeStyle=1;orthogonal=1;" parent="1" source="E-WgCWVg2FSw_FKLfw6c-7" target="E-WgCWVg2FSw_FKLfw6c-12" edge="1">
          <mxGeometry relative="1" as="geometry">
            <Array as="points">
              <mxPoint x="572" y="425.00000000000034" />
              <mxPoint x="648" y="386.0000000000002" />
            </Array>
          </mxGeometry>
        </mxCell>
        <mxCell id="E-WgCWVg2FSw_FKLfw6c-7" value="&lt;p&gt;IN_CHANGE_LANE&lt;/p&gt;" style="rounded=0;whiteSpace=wrap;html=1;" parent="1" vertex="1">
          <mxGeometry x="440" y="406.00000000000034" width="120" height="38" as="geometry" />
        </mxCell>
        <mxCell id="E-WgCWVg2FSw_FKLfw6c-19" style="edgeStyle=orthogonalEdgeStyle;rounded=0;orthogonalLoop=1;jettySize=auto;html=1;entryX=0;entryY=0.5;entryDx=0;entryDy=0;noEdgeStyle=1;orthogonal=1;" parent="1" source="E-WgCWVg2FSw_FKLfw6c-8" target="E-WgCWVg2FSw_FKLfw6c-18" edge="1">
          <mxGeometry relative="1" as="geometry">
            <mxPoint x="546" y="61.00000000000023" as="targetPoint" />
            <Array as="points">
              <mxPoint x="572" y="493.00000000000034" />
              <mxPoint x="648" y="454.0000000000002" />
            </Array>
          </mxGeometry>
        </mxCell>
        <mxCell id="E-WgCWVg2FSw_FKLfw6c-8" value="&lt;p&gt;FAILED&lt;/p&gt;" style="rounded=0;whiteSpace=wrap;html=1;" parent="1" vertex="1">
          <mxGeometry x="440" y="474.00000000000034" width="120" height="38" as="geometry" />
        </mxCell>
        <mxCell id="E-WgCWVg2FSw_FKLfw6c-21" style="edgeStyle=orthogonalEdgeStyle;rounded=0;orthogonalLoop=1;jettySize=auto;html=1;noEdgeStyle=1;orthogonal=1;" parent="1" source="E-WgCWVg2FSw_FKLfw6c-9" target="E-WgCWVg2FSw_FKLfw6c-20" edge="1">
          <mxGeometry relative="1" as="geometry">
            <Array as="points">
              <mxPoint x="572" y="561.0000000000003" />
              <mxPoint x="648" y="522.0000000000002" />
            </Array>
          </mxGeometry>
        </mxCell>
        <mxCell id="E-WgCWVg2FSw_FKLfw6c-9" value="&lt;p&gt;OTHER&lt;/p&gt;" style="rounded=0;whiteSpace=wrap;html=1;" parent="1" vertex="1">
          <mxGeometry x="440" y="542.0000000000003" width="120" height="38" as="geometry" />
        </mxCell>
        <mxCell id="E-WgCWVg2FSw_FKLfw6c-11" value="&lt;p&gt;NO ACTION&lt;/p&gt;" style="rounded=0;whiteSpace=wrap;html=1;" parent="1" vertex="1">
          <mxGeometry x="739.75" y="299.0000000000002" width="120" height="38" as="geometry" />
        </mxCell>
        <mxCell id="E-WgCWVg2FSw_FKLfw6c-12" value="&lt;p&gt;UpdateStatus(Finished)&lt;/p&gt;" style="rounded=0;whiteSpace=wrap;html=1;" parent="1" vertex="1">
          <mxGeometry x="719.75" y="367.0000000000002" width="160" height="38" as="geometry" />
        </mxCell>
        <mxCell id="E-WgCWVg2FSw_FKLfw6c-18" value="&lt;p&gt;NO ACTION&lt;/p&gt;" style="rounded=0;whiteSpace=wrap;html=1;" parent="1" vertex="1">
          <mxGeometry x="739.75" y="435.0000000000002" width="120" height="38" as="geometry" />
        </mxCell>
        <mxCell id="E-WgCWVg2FSw_FKLfw6c-20" value="&lt;p&gt;Report Error&lt;/p&gt;" style="rounded=0;whiteSpace=wrap;html=1;" parent="1" vertex="1">
          <mxGeometry x="739.75" y="503.0000000000002" width="120" height="38" as="geometry" />
        </mxCell>
        <mxCell id="E-WgCWVg2FSw_FKLfw6c-23" style="edgeStyle=orthogonalEdgeStyle;rounded=0;orthogonalLoop=1;jettySize=auto;html=1;entryX=0;entryY=0.5;entryDx=0;entryDy=0;noEdgeStyle=1;orthogonal=1;" parent="1" source="E-WgCWVg2FSw_FKLfw6c-24" target="E-WgCWVg2FSw_FKLfw6c-31" edge="1">
          <mxGeometry relative="1" as="geometry">
            <Array as="points">
              <mxPoint x="572" y="629.0000000000003" />
              <mxPoint x="648" y="603.0000000000002" />
            </Array>
          </mxGeometry>
        </mxCell>
        <mxCell id="E-WgCWVg2FSw_FKLfw6c-24" value="&lt;p&gt;IN_CHANGE_LANE&lt;br&gt;&lt;/p&gt;" style="rounded=0;whiteSpace=wrap;html=1;" parent="1" vertex="1">
          <mxGeometry x="440" y="610.0000000000003" width="120" height="38" as="geometry" />
        </mxCell>
        <mxCell id="E-WgCWVg2FSw_FKLfw6c-25" style="edgeStyle=orthogonalEdgeStyle;rounded=0;orthogonalLoop=1;jettySize=auto;html=1;entryX=0;entryY=0.5;entryDx=0;entryDy=0;noEdgeStyle=1;orthogonal=1;" parent="1" source="E-WgCWVg2FSw_FKLfw6c-26" target="E-WgCWVg2FSw_FKLfw6c-32" edge="1">
          <mxGeometry relative="1" as="geometry">
            <Array as="points">
              <mxPoint x="572" y="697.0000000000003" />
              <mxPoint x="648" y="697.0000000000002" />
            </Array>
          </mxGeometry>
        </mxCell>
        <mxCell id="E-WgCWVg2FSw_FKLfw6c-26" value="&lt;p&gt;FAILED&lt;br&gt;&lt;/p&gt;" style="rounded=0;whiteSpace=wrap;html=1;" parent="1" vertex="1">
          <mxGeometry x="440" y="678.0000000000003" width="120" height="38" as="geometry" />
        </mxCell>
        <mxCell id="E-WgCWVg2FSw_FKLfw6c-53" style="edgeStyle=orthogonalEdgeStyle;rounded=0;orthogonalLoop=1;jettySize=auto;html=1;entryX=0;entryY=0.5;entryDx=0;entryDy=0;noEdgeStyle=1;orthogonal=1;" parent="1" source="E-WgCWVg2FSw_FKLfw6c-28" target="E-WgCWVg2FSw_FKLfw6c-52" edge="1">
          <mxGeometry relative="1" as="geometry">
            <Array as="points">
              <mxPoint x="572" y="765.0000000000003" />
              <mxPoint x="648" y="791.0000000000002" />
            </Array>
          </mxGeometry>
        </mxCell>
        <mxCell id="E-WgCWVg2FSw_FKLfw6c-28" value="&lt;p&gt;FINISHED&lt;br&gt;&lt;/p&gt;" style="rounded=0;whiteSpace=wrap;html=1;" parent="1" vertex="1">
          <mxGeometry x="440" y="746.0000000000003" width="120" height="38" as="geometry" />
        </mxCell>
        <mxCell id="E-WgCWVg2FSw_FKLfw6c-29" style="edgeStyle=orthogonalEdgeStyle;rounded=0;orthogonalLoop=1;jettySize=auto;html=1;noEdgeStyle=1;orthogonal=1;" parent="1" source="E-WgCWVg2FSw_FKLfw6c-30" target="E-WgCWVg2FSw_FKLfw6c-34" edge="1">
          <mxGeometry relative="1" as="geometry">
            <Array as="points">
              <mxPoint x="572" y="833.0000000000003" />
              <mxPoint x="648" y="872.0000000000005" />
            </Array>
          </mxGeometry>
        </mxCell>
        <mxCell id="E-WgCWVg2FSw_FKLfw6c-30" value="&lt;p&gt;OTHER&lt;/p&gt;" style="rounded=0;whiteSpace=wrap;html=1;" parent="1" vertex="1">
          <mxGeometry x="440" y="814.0000000000003" width="120" height="38" as="geometry" />
        </mxCell>
        <mxCell id="E-WgCWVg2FSw_FKLfw6c-42" style="edgeStyle=orthogonalEdgeStyle;rounded=0;orthogonalLoop=1;jettySize=auto;html=1;entryX=0;entryY=0.5;entryDx=0;entryDy=0;noEdgeStyle=1;orthogonal=1;" parent="1" source="E-WgCWVg2FSw_FKLfw6c-31" target="E-WgCWVg2FSw_FKLfw6c-40" edge="1">
          <mxGeometry relative="1" as="geometry">
            <Array as="points">
              <mxPoint x="951.5" y="589.5000000000002" />
              <mxPoint x="1027.5" y="334.00000000000034" />
            </Array>
          </mxGeometry>
        </mxCell>
        <mxCell id="E-WgCWVg2FSw_FKLfw6c-44" value="True" style="edgeLabel;html=1;align=center;verticalAlign=middle;resizable=0;points=[];" parent="E-WgCWVg2FSw_FKLfw6c-42" vertex="1" connectable="0">
          <mxGeometry width="35" height="17" relative="1" as="geometry">
            <mxPoint x="-17" y="-8" as="offset" />
          </mxGeometry>
        </mxCell>
        <mxCell id="E-WgCWVg2FSw_FKLfw6c-43" style="edgeStyle=orthogonalEdgeStyle;rounded=0;orthogonalLoop=1;jettySize=auto;html=1;entryX=0;entryY=0.5;entryDx=0;entryDy=0;noEdgeStyle=1;orthogonal=1;" parent="1" source="E-WgCWVg2FSw_FKLfw6c-31" target="E-WgCWVg2FSw_FKLfw6c-41" edge="1">
          <mxGeometry relative="1" as="geometry">
            <Array as="points">
              <mxPoint x="951.5" y="616.5000000000002" />
              <mxPoint x="1027.5" y="441.00000000000034" />
            </Array>
          </mxGeometry>
        </mxCell>
        <mxCell id="E-WgCWVg2FSw_FKLfw6c-54" value="False" style="edgeLabel;html=1;align=center;verticalAlign=middle;resizable=0;points=[];" parent="E-WgCWVg2FSw_FKLfw6c-43" vertex="1" connectable="0">
          <mxGeometry x="14.15517241379316" y="83.65517241379317" relative="1" as="geometry">
            <mxPoint as="offset" />
          </mxGeometry>
        </mxCell>
        <mxCell id="E-WgCWVg2FSw_FKLfw6c-31" value="&lt;p&gt;prev_status_id == current_path_id&lt;/p&gt;&lt;p&gt;&lt;span&gt;是否接近目标path&lt;/span&gt;&lt;/p&gt;" style="rounded=0;whiteSpace=wrap;html=1;" parent="1" vertex="1">
          <mxGeometry x="695.25" y="571.0000000000002" width="209" height="64" as="geometry" />
        </mxCell>
        <mxCell id="E-WgCWVg2FSw_FKLfw6c-50" value="True" style="edgeStyle=orthogonalEdgeStyle;rounded=0;orthogonalLoop=1;jettySize=auto;html=1;entryX=0;entryY=0.5;entryDx=0;entryDy=0;noEdgeStyle=1;orthogonal=1;" parent="1" source="E-WgCWVg2FSw_FKLfw6c-32" target="E-WgCWVg2FSw_FKLfw6c-48" edge="1">
          <mxGeometry relative="1" as="geometry">
            <Array as="points">
              <mxPoint x="951.5" y="683.5000000000002" />
              <mxPoint x="1027.5" y="548.0000000000003" />
            </Array>
          </mxGeometry>
        </mxCell>
        <mxCell id="E-WgCWVg2FSw_FKLfw6c-51" value="False" style="edgeStyle=orthogonalEdgeStyle;rounded=0;orthogonalLoop=1;jettySize=auto;html=1;entryX=0;entryY=0.5;entryDx=0;entryDy=0;noEdgeStyle=1;orthogonal=1;" parent="1" source="E-WgCWVg2FSw_FKLfw6c-32" target="E-WgCWVg2FSw_FKLfw6c-49" edge="1">
          <mxGeometry relative="1" as="geometry">
            <Array as="points">
              <mxPoint x="951.5" y="710.5000000000002" />
              <mxPoint x="1027.5" y="642.0000000000003" />
            </Array>
          </mxGeometry>
        </mxCell>
        <mxCell id="E-WgCWVg2FSw_FKLfw6c-32" value="&lt;p&gt;now_time - prev_time &amp;lt; fail_freeze_time&lt;/p&gt;&lt;p&gt;当前到上次失败的时间小于freeze_time(1s)？&lt;/p&gt;" style="rounded=0;whiteSpace=wrap;html=1;" parent="1" vertex="1">
          <mxGeometry x="674" y="665.0000000000002" width="251.5" height="64" as="geometry" />
        </mxCell>
        <mxCell id="E-WgCWVg2FSw_FKLfw6c-34" value="&lt;p&gt;Report Error&lt;/p&gt;" style="rounded=0;whiteSpace=wrap;html=1;" parent="1" vertex="1">
          <mxGeometry x="739.75" y="853.0000000000005" width="120" height="38" as="geometry" />
        </mxCell>
        <mxCell id="E-WgCWVg2FSw_FKLfw6c-40" value="&lt;p&gt;PrioritizeChangeLane(True)&lt;br&gt;&lt;/p&gt;&lt;p&gt;优先处理换道&lt;/p&gt;" style="rounded=0;whiteSpace=wrap;html=1;" parent="1" vertex="1">
          <mxGeometry x="1064.125" y="302.00000000000034" width="209" height="64" as="geometry" />
        </mxCell>
        <mxCell id="E-WgCWVg2FSw_FKLfw6c-41" value="&lt;p&gt;PrioritizeChangeLane(False)&lt;br&gt;&lt;/p&gt;&lt;p&gt;UpdateStatus(Finished)&lt;br&gt;&lt;/p&gt;&lt;p&gt;优先处理当前path，更新状态为换道完成&lt;/p&gt;" style="rounded=0;whiteSpace=wrap;html=1;" parent="1" vertex="1">
          <mxGeometry x="1039.5" y="396.00000000000034" width="258.25" height="90" as="geometry" />
        </mxCell>
        <mxCell id="E-WgCWVg2FSw_FKLfw6c-48" value="&lt;p&gt;PrioritizeChangeLane(False)&lt;br&gt;&lt;/p&gt;&lt;p&gt;优先处理当前path（不换道）&lt;/p&gt;" style="rounded=0;whiteSpace=wrap;html=1;" parent="1" vertex="1">
          <mxGeometry x="1042.875" y="516.0000000000003" width="251.5" height="64" as="geometry" />
        </mxCell>
        <mxCell id="E-WgCWVg2FSw_FKLfw6c-49" value="&lt;p&gt;UpdateStatus(in_change_line)&lt;/p&gt;&lt;p&gt;重新尝试换道&lt;/p&gt;" style="rounded=0;whiteSpace=wrap;html=1;" parent="1" vertex="1">
          <mxGeometry x="1042.875" y="610.0000000000003" width="251.5" height="64" as="geometry" />
        </mxCell>
        <mxCell id="E-WgCWVg2FSw_FKLfw6c-56" style="edgeStyle=orthogonalEdgeStyle;rounded=0;orthogonalLoop=1;jettySize=auto;html=1;entryX=0;entryY=0.5;entryDx=0;entryDy=0;noEdgeStyle=1;orthogonal=1;" parent="1" source="E-WgCWVg2FSw_FKLfw6c-52" target="E-WgCWVg2FSw_FKLfw6c-55" edge="1">
          <mxGeometry relative="1" as="geometry">
            <Array as="points">
              <mxPoint x="951.5" y="777.5000000000002" />
              <mxPoint x="1027.5" y="736.0000000000003" />
            </Array>
          </mxGeometry>
        </mxCell>
        <mxCell id="E-WgCWVg2FSw_FKLfw6c-57" value="True" style="edgeLabel;html=1;align=center;verticalAlign=middle;resizable=0;points=[];" parent="E-WgCWVg2FSw_FKLfw6c-56" vertex="1" connectable="0">
          <mxGeometry x="12.155172413793103" y="157.65517241379314" relative="1" as="geometry">
            <mxPoint as="offset" />
          </mxGeometry>
        </mxCell>
        <mxCell id="E-WgCWVg2FSw_FKLfw6c-59" style="edgeStyle=orthogonalEdgeStyle;rounded=0;orthogonalLoop=1;jettySize=auto;html=1;entryX=0;entryY=0.5;entryDx=0;entryDy=0;noEdgeStyle=1;orthogonal=1;" parent="1" source="E-WgCWVg2FSw_FKLfw6c-52" target="E-WgCWVg2FSw_FKLfw6c-58" edge="1">
          <mxGeometry relative="1" as="geometry">
            <Array as="points">
              <mxPoint x="951.5" y="804.5000000000002" />
              <mxPoint x="1027.5" y="843.0000000000002" />
            </Array>
          </mxGeometry>
        </mxCell>
        <mxCell id="E-WgCWVg2FSw_FKLfw6c-60" value="False" style="edgeLabel;html=1;align=center;verticalAlign=middle;resizable=0;points=[];" parent="E-WgCWVg2FSw_FKLfw6c-59" vertex="1" connectable="0">
          <mxGeometry x="14.15517241379316" y="231.65517241379325" relative="1" as="geometry">
            <mxPoint as="offset" />
          </mxGeometry>
        </mxCell>
        <mxCell id="E-WgCWVg2FSw_FKLfw6c-52" value="&lt;p&gt;now_time - prev_time &amp;lt; success_freeze_time&lt;/p&gt;&lt;p&gt;当前到上次成功的时间小于success_time(1.5s)？&lt;br&gt;&lt;/p&gt;" style="rounded=0;whiteSpace=wrap;html=1;" parent="1" vertex="1">
          <mxGeometry x="660" y="759.0000000000003" width="279.5" height="64" as="geometry" />
        </mxCell>
        <mxCell id="E-WgCWVg2FSw_FKLfw6c-55" value="&lt;p&gt;PrioritizeChangeLane(False)&lt;br&gt;&lt;/p&gt;&lt;p&gt;优先处理当前path（不换道）&lt;/p&gt;" style="rounded=0;whiteSpace=wrap;html=1;" parent="1" vertex="1">
          <mxGeometry x="1042.875" y="704.0000000000003" width="251.5" height="64" as="geometry" />
        </mxCell>
        <mxCell id="E-WgCWVg2FSw_FKLfw6c-58" value="&lt;p&gt;PrioritizeChangeLane(True)&lt;br&gt;&lt;/p&gt;&lt;p&gt;UpdateStatus(in_change_lane)&lt;br&gt;&lt;/p&gt;&lt;p&gt;优先处理换道，更新状态为换道中&lt;/p&gt;" style="rounded=0;whiteSpace=wrap;html=1;" parent="1" vertex="1">
          <mxGeometry x="1042.875" y="811.0000000000001" width="251.5" height="64" as="geometry" />
        </mxCell>
      </root>
    </mxGraphModel>
  </diagram>
</mxfile>
